<?xml version="1.0" encoding="UTF-8"?>
<svg width="24px" height="24px" viewBox="0 0 24 24" version="1.1" xmlns="http://www.w3.org/2000/svg" xmlns:xlink="http://www.w3.org/1999/xlink">
    <title>icons/24x24/ico_keyboard</title>
    <g id="icons/24x24/ico_keyboard" stroke="none" stroke-width="1" fill="none" fill-rule="evenodd">
        <g id="-">
            <polygon id="Bounds" points="0 24 24 24 24 0 0 0"/>
            <g id="Group" transform="translate(1.000000, 5.000000)">
                <rect id="Rectangle" stroke="#007EAE" stroke-width="1.5" x="0" y="0" width="22" height="14.3478261" rx="4"/>
                <circle id="Oval" fill="#007EAE" cx="4.09782609" cy="4.09782609" r="1"/>
                <circle id="Oval-Copy-28" fill="#007EAE" cx="4.09782609" cy="7.0326087" r="1"/>
                <circle id="Oval-Copy-34" fill="#007EAE" cx="4.09782609" cy="9.9673913" r="1"/>
                <circle id="Oval-Copy-10" fill="#007EAE" cx="7.0326087" cy="4.09782609" r="1"/>
                <circle id="Oval-Copy-29" fill="#007EAE" cx="7.0326087" cy="7.0326087" r="1"/>
                <circle id="Oval-Copy-11" fill="#007EAE" cx="9.9673913" cy="4.09782609" r="1"/>
                <circle id="Oval-Copy-30" fill="#007EAE" cx="9.9673913" cy="7.0326087" r="1"/>
                <circle id="Oval-Copy-25" fill="#007EAE" cx="12.9021739" cy="4.09782609" r="1"/>
                <circle id="Oval-Copy-31" fill="#007EAE" cx="12.9021739" cy="7.0326087" r="1"/>
                <circle id="Oval-Copy-26" fill="#007EAE" cx="15.8369565" cy="4.09782609" r="1"/>
                <circle id="Oval-Copy-32" fill="#007EAE" cx="15.8369565" cy="7.0326087" r="1"/>
                <circle id="Oval-Copy-27" fill="#007EAE" cx="18.7717391" cy="4.09782609" r="1"/>
                <circle id="Oval-Copy-33" fill="#007EAE" cx="18.7717391" cy="7.0326087" r="1"/>
                <circle id="Oval-Copy-35" fill="#007EAE" cx="18.7717391" cy="9.9673913" r="1"/>
                <line x1="16" y1="10" x2="7" y2="10" id="Line-11" stroke="#007EAE" stroke-width="1.5" stroke-linecap="square"/>
            </g>
        </g>
    </g>
</svg>